<svg width="43" height="40" viewBox="0 0 43 40" fill="none" xmlns="http://www.w3.org/2000/svg">
<circle cx="20.1797" cy="20" r="20" fill="#1D67B4"/>
<path d="M28.239 22.996C28.0056 22.9094 27.8103 22.7894 27.5845 22.7499C27.2835 22.6997 26.9743 22.7497 26.7044 22.8919C24.9116 23.7874 23.1191 24.6832 21.3268 25.5792C20.8183 25.8344 20.5355 26.2546 20.5386 26.8274C20.5386 27.3874 20.8259 27.7954 21.3207 28.0514C21.7403 28.2687 22.1621 28.4814 22.59 28.682C22.7489 28.758 22.812 28.8453 22.8074 29.0246C22.7953 29.5565 22.7907 30.0845 22.8074 30.614C22.8158 30.848 22.755 30.9126 22.5148 30.9111C20.0438 30.902 17.5743 30.9058 15.1017 30.9058C13.9282 30.9058 12.7543 30.9058 11.5803 30.9058C11.1356 30.9058 10.9844 30.7538 10.9844 30.3094C10.9844 23.4392 10.9844 16.569 10.9844 9.69887C10.9844 9.25062 11.1364 9.10019 11.5765 9.09943C12.3624 9.09943 13.1483 9.10475 13.9327 9.09487C14.1189 9.09487 14.1729 9.14653 14.1684 9.33191C14.1562 9.84246 14.1615 10.3538 14.1684 10.8651C14.1737 11.6955 14.7506 12.2767 15.5813 12.2775C18.2705 12.2815 20.9592 12.2815 23.6473 12.2775C24.4971 12.2775 25.0694 11.7001 25.0755 10.8491C25.0755 10.3386 25.0831 9.82727 25.0755 9.31672C25.0717 9.14122 25.1226 9.08879 25.2975 9.09411C26.1115 9.10323 26.9263 9.09411 27.7404 9.09943C28.0801 9.09943 28.2587 9.26885 28.2595 9.6001C28.2595 14.0472 28.258 18.4945 28.2549 22.9421C28.2509 22.9604 28.2456 22.9785 28.239 22.996ZM19.6105 18.6389H24.4112C24.5056 18.6452 24.6003 18.6417 24.694 18.6282C24.7991 18.6144 24.8956 18.5628 24.9655 18.4832C25.0354 18.4035 25.074 18.3011 25.074 18.1952C25.0778 18.0852 25.0407 17.9776 24.9698 17.8934C24.8989 17.8092 24.7992 17.7543 24.6901 17.7393C24.6054 17.7297 24.52 17.7269 24.4348 17.731H14.803C14.727 17.7265 14.6507 17.7283 14.575 17.7363C14.3287 17.7773 14.1851 17.9232 14.1699 18.1746C14.1656 18.2896 14.206 18.4018 14.2827 18.4876C14.3594 18.5735 14.4663 18.6263 14.5811 18.6351C14.666 18.6415 14.7513 18.643 14.8365 18.6396L19.6105 18.6389ZM20.7294 15.4585H24.4218C24.507 15.464 24.5925 15.4615 24.6772 15.4509C24.9212 15.4054 25.0694 15.2549 25.0694 15.0034C25.0694 14.752 24.922 14.6015 24.6765 14.5575C24.5824 14.5465 24.4875 14.544 24.393 14.5499H17.1213C17.0267 14.544 16.9318 14.5466 16.8378 14.5575C16.593 14.6015 16.4456 14.7527 16.4456 15.0042C16.4456 15.2557 16.5976 15.4054 16.8385 15.4509C16.9232 15.4615 17.0087 15.464 17.0939 15.4585H20.7294ZM20.7575 20.9105H17.0924C17.0164 20.9075 16.9402 20.9088 16.8644 20.9143C16.7493 20.921 16.6412 20.9714 16.5622 21.0551C16.4831 21.1389 16.4391 21.2497 16.4391 21.3648C16.4391 21.48 16.4831 21.5908 16.5622 21.6746C16.6412 21.7583 16.7493 21.8087 16.8644 21.8154C16.9487 21.8237 17.0346 21.8192 17.1197 21.8192H24.3914C24.486 21.8251 24.5809 21.8225 24.6749 21.8116C24.9197 21.7667 25.0679 21.6156 25.0679 21.3648C25.0679 21.1141 24.9205 20.9629 24.6757 20.9173C24.591 20.9074 24.5055 20.9052 24.4203 20.9105H20.7575Z" fill="white"/>
<path d="M32.3496 27.5562L29.6893 28.8828C29.0128 29.2201 28.3341 29.5529 27.6614 29.8978C27.5675 29.9512 27.4613 29.9793 27.3532 29.9793C27.2451 29.9793 27.1389 29.9512 27.045 29.8978C25.2877 29.015 23.5288 28.1362 21.7685 27.2615C21.5762 27.1657 21.4401 27.0297 21.4455 26.8056C21.4508 26.5944 21.5815 26.4645 21.7639 26.3741C23.5319 25.4928 25.2993 24.6099 27.0663 23.7256C27.1528 23.6776 27.2501 23.6523 27.349 23.6523C27.448 23.6523 27.5453 23.6776 27.6318 23.7256C29.3972 24.6104 31.1639 25.4933 32.9318 26.3741C33.0361 26.4194 33.1237 26.496 33.1824 26.5934C33.2411 26.6907 33.268 26.8039 33.2594 26.9173C33.2559 28.9706 33.2559 31.0237 33.2594 33.0766C33.2594 33.4276 33.0777 33.6388 32.795 33.632C32.5122 33.6251 32.3526 33.4215 32.3519 33.0834C32.3519 31.3613 32.3519 29.6392 32.3519 27.9171L32.3496 27.5562Z" fill="white"/>
<path d="M19.634 11.371H15.6862C15.2218 11.371 15.0781 11.2244 15.0781 10.7632C15.0781 10.0908 15.0781 9.41921 15.0781 8.74759C15.0781 8.35708 15.2408 8.19677 15.6315 8.19449C16.1521 8.19449 16.6728 8.18766 17.1934 8.19449C17.3454 8.19449 17.4009 8.14891 17.4473 8.00836C17.7757 6.99333 18.6117 6.37109 19.6211 6.37109C20.6305 6.37109 21.4605 6.98877 21.795 8.00684C21.8413 8.14739 21.9014 8.19525 22.0496 8.19222C22.5702 8.18234 23.0909 8.18614 23.6123 8.19222C24.0015 8.19222 24.1634 8.35556 24.1649 8.74531C24.1679 9.43669 24.1679 10.1278 24.1649 10.8187C24.1649 11.2069 24.0007 11.3703 23.6108 11.371C22.2852 11.373 20.9596 11.373 19.634 11.371Z" fill="white"/>
<path d="M30.9813 29.2617C30.9813 29.9858 30.9813 30.6665 30.9813 31.3465C30.9822 31.437 30.9575 31.5258 30.91 31.6029C30.8625 31.6799 30.7942 31.742 30.713 31.7818C29.6793 32.3719 28.6455 32.9627 27.6118 33.5543C27.5315 33.6049 27.4385 33.6318 27.3435 33.6318C27.2486 33.6318 27.1555 33.6049 27.0752 33.5543C26.043 32.9582 25.0093 32.3656 23.9741 31.7765C23.8932 31.7363 23.8254 31.6738 23.7788 31.5964C23.7323 31.519 23.7087 31.4299 23.7111 31.3396C23.7111 30.6599 23.7111 29.9792 23.7111 29.2974C23.838 29.2784 23.9186 29.3552 24.0075 29.3992C24.8793 29.8308 25.7557 30.2585 26.6169 30.7052C26.8401 30.8306 27.0917 30.8964 27.3477 30.8964C27.6037 30.8964 27.8554 30.8306 28.0785 30.7052C28.9443 30.2616 29.8176 29.8331 30.6879 29.3992C30.7715 29.3574 30.8551 29.3172 30.9813 29.2617Z" fill="white"/>
</svg>
