<svg width="13" height="13" viewBox="0 0 13 13" fill="none" xmlns="http://www.w3.org/2000/svg">
<g clip-path="url(#clip0_4392_33380)">
<path d="M10.8346 1.625H2.16797C1.27051 1.625 0.542969 2.35254 0.542969 3.25V10.8333C0.542969 11.7308 1.27051 12.4583 2.16797 12.4583H10.8346C11.7321 12.4583 12.4596 11.7308 12.4596 10.8333V3.25C12.4596 2.35254 11.7321 1.625 10.8346 1.625Z" stroke="#666666" stroke-width="2" stroke-linecap="round" stroke-linejoin="round"/>
<path d="M0.542969 4.875H12.4596" stroke="#666666" stroke-width="2" stroke-linecap="round" stroke-linejoin="round"/>
<path d="M6.5 2.70964V0.542969" stroke="#666666" stroke-width="2" stroke-linecap="round" stroke-linejoin="round"/>
<path d="M3.25 2.70964V0.542969" stroke="#666666" stroke-width="2" stroke-linecap="round" stroke-linejoin="round"/>
<path d="M9.75 2.70964V0.542969" stroke="#666666" stroke-width="2" stroke-linecap="round" stroke-linejoin="round"/>
<path d="M2.71094 7.58594H3.79427" stroke="#666666" stroke-width="2" stroke-linecap="round" stroke-linejoin="round"/>
<path d="M5.96094 7.58594H7.04427" stroke="#666666" stroke-width="2" stroke-linecap="round" stroke-linejoin="round"/>
<path d="M9.21094 7.58594H10.2943" stroke="#666666" stroke-width="2" stroke-linecap="round" stroke-linejoin="round"/>
<path d="M2.71094 9.75H3.79427" stroke="#666666" stroke-width="2" stroke-linecap="round" stroke-linejoin="round"/>
<path d="M5.96094 9.75H7.04427" stroke="#666666" stroke-width="2" stroke-linecap="round" stroke-linejoin="round"/>
<path d="M9.21094 9.75H10.2943" stroke="#666666" stroke-width="2" stroke-linecap="round" stroke-linejoin="round"/>
</g>
<defs>
<clipPath id="clip0_4392_33380">
<rect width="13" height="13" fill="white"/>
</clipPath>
</defs>
</svg>
