<svg width="9" height="12" viewBox="0 0 9 12" fill="none" xmlns="http://www.w3.org/2000/svg">
<path d="M4.60156 3.75V7.20398L6.10156 5.70398L6.63195 6.23438L4.22656 8.63977L1.82117 6.23438L2.35156 5.70398L3.85156 7.20398V3.75H0.382813C0.30822 3.75 0.236683 3.77963 0.183939 3.83238C0.131194 3.88512 0.101563 3.95666 0.101562 4.03125V10.9688C0.101563 11.0433 0.131194 11.1149 0.183939 11.1676C0.236683 11.2204 0.30822 11.25 0.382813 11.25H8.07031C8.14491 11.25 8.21644 11.2204 8.26919 11.1676C8.32193 11.1149 8.35156 11.0433 8.35156 10.9688V4.03125C8.35156 3.95666 8.32193 3.88512 8.26919 3.83238C8.21644 3.77963 8.14491 3.75 8.07031 3.75H4.60156ZM3.85156 0.75H4.60156V3.75H3.85156V0.75Z" fill="#020066"/>
</svg>
