<svg width="12" height="9" viewBox="0 0 12 9" fill="none" xmlns="http://www.w3.org/2000/svg">
<path d="M2.39561 1.28203H0.463609C0.241609 1.28203 0.0196092 1.47403 0.0496092 1.78603L0.985609 7.78003C0.985609 7.78003 2.09561 3.36403 2.31161 2.30203C2.37761 1.98403 2.67761 1.88203 2.89961 1.88203H5.99561C5.99561 1.88203 5.57561 0.634031 5.53361 0.496031C5.46161 0.232031 5.32961 0.0820312 5.06561 0.0820312H3.07961C2.86361 0.0820312 2.65961 0.220031 2.59961 0.466031C2.54561 0.706031 2.39561 1.28203 2.39561 1.28203ZM5.32361 1.28203H2.92361C2.92361 1.28203 3.17561 0.682031 3.44561 0.682031H4.72361C5.01161 0.682031 5.32361 1.28203 5.32361 1.28203ZM1.59761 8.03203C1.41161 8.31403 1.14161 8.48203 0.841609 8.48203H10.2796C10.6036 8.48203 10.8316 8.29603 10.8976 7.98403C11.1616 6.67003 11.9056 2.92003 11.9056 2.92003C11.9476 2.62003 11.7256 2.48203 11.5336 2.48203H9.59561V1.60003C9.59561 1.50403 9.43961 1.28203 9.19961 1.28203H6.94361C6.63161 1.28203 6.42161 1.63003 6.42161 1.63003L5.99561 2.48203H3.34961C3.15761 2.48203 2.97161 2.59603 2.93561 2.78203C2.93561 2.78203 1.98161 6.80203 1.90361 7.18003C1.86161 7.40203 1.77161 7.77403 1.59761 8.03203ZM9.22361 2.48203H6.59561C6.59561 2.48203 6.94361 1.88203 7.27361 1.88203H8.64761C9.07361 1.88203 9.22361 2.48203 9.22361 2.48203Z" fill="#4E4E4E"/>
</svg>
