<svg width="23" height="29" viewBox="0 0 23 29" fill="none" xmlns="http://www.w3.org/2000/svg">
<path d="M11.511 7.90185C13.4545 7.90185 15.0299 6.31834 15.0299 4.36499C15.0299 2.41163 13.4545 0.828125 11.511 0.828125C9.56763 0.828125 7.99219 2.41163 7.99219 4.36499C7.99219 6.31834 9.56763 7.90185 11.511 7.90185Z" fill="#1B5277"/>
<path d="M3.12144 5.88281C2.53371 5.88897 1.96145 6.07294 1.47924 6.41074C0.997035 6.74854 0.627249 7.2245 0.418076 7.7766C0.208904 8.3287 0.170048 8.93133 0.306568 9.50595C0.443089 10.0806 0.748656 10.6005 1.18345 10.9981C1.2057 11.0402 1.23209 11.08 1.26223 11.1168L9.3661 19.3361L13.4916 15.1552L5.38769 6.93595C5.3519 6.9045 5.31217 6.87788 5.26952 6.85677C5.00033 6.55101 4.66968 6.30611 4.29941 6.13823C3.92914 5.97034 3.52765 5.88329 3.12144 5.88281Z" fill="#1B5277"/>
<path d="M22.9238 8.85364C22.9179 8.26307 22.7351 7.68799 22.3991 7.20344C22.0632 6.71889 21.5897 6.34737 21.0406 6.13734C20.4914 5.92732 19.892 5.88855 19.3205 6.02609C18.7491 6.16363 18.2322 6.47109 17.8372 6.90836C17.7939 6.92975 17.7533 6.95634 17.7164 6.98755L9.54688 15.1329L13.7091 19.2768L21.8865 11.1315C21.9172 11.0951 21.9437 11.0552 21.9653 11.0127C22.2677 10.7413 22.5095 10.4085 22.6747 10.0364C22.8399 9.66425 22.9248 9.26115 22.9238 8.85364Z" fill="#1A5278"/>
<path d="M7.33791 17.3794L11.4453 21.5078L15.5527 17.3794L11.4453 13.251L7.33791 17.3794Z" fill="#1B5277"/>
<path d="M19.9066 28.8283C20.4944 28.8229 21.0669 28.6395 21.5494 28.302C22.0319 27.9646 22.4019 27.4887 22.6112 26.9366C22.8205 26.3845 22.8593 25.7818 22.7225 25.2072C22.5858 24.6326 22.2798 24.1128 21.8446 23.7157C21.823 23.6723 21.7966 23.6316 21.7658 23.5942L13.662 15.375L9.53125 19.5585L17.6351 27.7751C17.6715 27.8065 17.7111 27.834 17.7533 27.857C18.024 28.1621 18.3557 28.4064 18.7268 28.5738C19.0978 28.7411 19.4999 28.8279 19.9066 28.8283Z" fill="#8EC045"/>
<path d="M0.078125 25.8607C0.0840019 26.4513 0.266841 27.0263 0.602785 27.5109C0.938728 27.9954 1.41218 28.367 1.96136 28.577C2.51054 28.787 3.10995 28.8258 3.68139 28.6882C4.25282 28.5507 4.76975 28.2432 5.16471 27.806C5.20856 27.7855 5.24925 27.7589 5.28551 27.7268L13.4708 19.5814L9.31119 15.4375L1.12853 23.5828C1.0984 23.6197 1.072 23.6595 1.04975 23.7016C0.744941 23.9718 0.500705 24.304 0.333205 24.6762C0.165705 25.0485 0.0787603 25.4522 0.078125 25.8607Z" fill="#8EC045"/>
<path d="M15.6855 17.3237L11.5781 13.1953L7.47072 17.3237L11.5781 21.4521L15.6855 17.3237Z" fill="#8EC045"/>
</svg>
