<svg width="43" height="40" viewBox="0 0 43 40" fill="none" xmlns="http://www.w3.org/2000/svg">
<circle cx="20.1797" cy="20" r="20" fill="#1D67B4"/>
<path d="M7.96875 28.464V9.81449C7.96875 7.0625 7.96875 7.0625 7.96875 7.0625H8.65777H9.06093C9.06093 7.0625 10.2032 7.0625 10.7186 7.0625H24.7771C24.8155 7.08257 27.5005 7.0625 27.5005 7.0625C27.5005 7.0625 27.4687 8.50935 27.5005 10.1461C27.5358 11.969 27.5093 13.7926 27.5127 15.6155C27.5127 15.726 27.493 15.7952 27.3735 15.8352C26.2945 16.1969 25.2167 16.562 24.14 16.9305C24.0524 16.9603 23.9831 16.9929 23.92 16.8769C23.6632 16.4022 23.2408 16.2604 22.726 16.2618C19.3955 16.2695 16.0649 16.2708 12.7344 16.2659C12.6447 16.2659 12.5551 16.2659 12.4627 16.272C12.2969 16.2859 12.1362 16.3359 11.9917 16.4185C11.8473 16.501 11.7228 16.6141 11.6267 16.7498C11.5307 16.8854 11.4656 17.0405 11.4359 17.2039C11.4062 17.3674 11.4126 17.5354 11.4548 17.6961C11.6036 18.2475 12.0301 18.5547 12.6664 18.5547C15.0358 18.5547 17.4056 18.5547 19.7758 18.5547C19.8648 18.5547 19.9639 18.5255 20.0637 18.6028C19.3452 19.2464 18.9696 20.0453 18.8888 20.9913C18.698 20.935 18.5343 20.8557 18.3502 20.8557C16.4024 20.8557 14.4546 20.8482 12.5096 20.8611C11.8868 20.8652 11.4039 21.4118 11.4175 22.0343C11.4324 22.6806 11.9445 23.1547 12.6508 23.1574C14.2396 23.1624 15.8283 23.1624 17.4171 23.1574C17.9054 23.1574 18.4012 23.2306 18.8915 23.0163C18.8915 23.9013 18.9031 24.7545 18.8915 25.6069C18.861 27.5444 19.3731 29.3294 20.3626 30.9861C20.3992 31.0485 20.4801 31.1028 20.4366 31.1997C17.267 31.1997 14.0981 31.2181 10.9285 31.1889C9.99534 31.1801 7.96875 31.1889 7.96875 31.1889C7.96875 31.1889 7.96875 29.0308 7.96875 28.464ZM14.8519 13.9649C15.599 13.9649 16.3406 13.9649 17.085 13.9649C17.7947 13.9649 18.3122 13.4745 18.3115 12.812C18.3109 12.1494 17.7967 11.6591 17.083 11.6591C15.6038 11.6537 14.1243 11.6537 12.6447 11.6591C11.9316 11.6591 11.4168 12.1535 11.4175 12.812C11.4182 13.4705 11.935 13.9574 12.6461 13.9601C13.3789 13.9669 14.1137 13.9649 14.8492 13.9649H14.8519Z" fill="white"/>
<path d="M28.1153 34.6609C26.4174 33.9014 24.9002 32.8855 23.62 31.5312C22.3568 30.1938 21.4943 28.6497 21.2477 26.7996C21.2003 26.4345 21.1776 26.0665 21.1798 25.6983C21.1798 24.2701 21.1798 22.8419 21.1798 21.4136C21.1798 20.6277 21.4209 20.2899 22.1626 20.0376C24.071 19.388 25.9794 18.7374 27.8878 18.0859C28.1944 17.974 28.5303 17.9714 28.8386 18.0784C30.7973 18.748 32.7564 19.4167 34.716 20.0844C35.2763 20.277 35.552 20.6717 35.5534 21.2644C35.5534 22.7917 35.5615 24.3162 35.5534 25.8461C35.5405 28.002 34.6814 29.8141 33.2545 31.3827C32.0238 32.7356 30.548 33.7562 28.8991 34.5348C28.8026 34.5802 28.7035 34.6189 28.6057 34.6609H28.1153ZM25.7811 24.8953C25.5551 24.8919 25.3333 24.9568 25.1448 25.0814C24.9563 25.2061 24.81 25.3847 24.725 25.5939C24.5362 26.0686 24.6238 26.4978 24.979 26.858C25.7152 27.6039 26.4596 28.3499 27.2039 29.0878C27.7948 29.6757 28.5452 29.6208 29.0553 28.9521C29.3819 28.5242 29.7018 28.0915 30.0244 27.6602C30.8265 26.5908 31.6326 25.5247 32.4273 24.4498C32.8531 23.874 32.7118 23.1233 32.1284 22.7618C31.6089 22.4397 30.9739 22.5699 30.58 23.0907C29.7586 24.1794 28.9416 25.2713 28.1289 26.3663C27.9978 26.544 27.9252 26.5833 27.7588 26.4022C27.3927 26.0075 27.0015 25.6366 26.6212 25.2554C26.5145 25.1395 26.3846 25.0472 26.2398 24.9847C26.0951 24.9222 25.9388 24.8908 25.7811 24.8926V24.8953Z" fill="white"/>
</svg>
