<svg width="40" height="49" viewBox="0 0 40 49" fill="none" xmlns="http://www.w3.org/2000/svg">
<path d="M4.61934 9.74521L6.11847 16.1304L4.61934 22.4878L10.1994 25.9303L13.6141 31.5104L19.9993 30.0113L26.3845 31.5104L29.7992 25.9303L35.3793 22.4878L33.8802 16.1304L35.3793 9.74521L29.827 6.30276L26.3845 0.722656L19.9993 2.24955L13.6419 0.750418L10.1717 6.30276L4.61934 9.74521ZM20.0271 27.3461C17.0819 27.3461 14.2574 26.1762 12.1749 24.0937C10.0924 22.0111 8.92241 19.1866 8.92241 16.2415C8.92241 13.2963 10.0924 10.4718 12.1749 8.38925C14.2574 6.30672 17.0819 5.13677 20.0271 5.13677C26.1347 5.13677 31.104 10.1061 31.104 16.2137C31.104 22.3768 26.1347 27.3461 20.0271 27.3461ZM19.9716 24.57C15.3631 24.57 11.6708 20.8499 11.6708 16.2415C11.6708 11.6608 15.3631 7.91294 19.9716 7.91294C24.58 7.91294 28.3278 11.6608 28.3278 16.2415C28.3278 20.8499 24.58 24.57 19.9716 24.57ZM30.6321 27.6238L27.0786 33.8424L21.3041 32.5376L28.3278 48.7227L32.2145 42.6151H39.1549L30.6321 27.6238ZM9.25555 27.8181L12.7258 34.0645L18.639 32.6486L11.6708 48.7227L7.78418 42.6151H0.84375L9.25555 27.8181Z" fill="#1D67B4"/>
</svg>
