<svg width="150" height="151" viewBox="0 0 150 151" fill="none" xmlns="http://www.w3.org/2000/svg">
<g clip-path="url(#clip0_5832_54623)">
<path d="M74.9987 150.568C116.419 150.568 149.997 116.99 149.997 75.569C149.997 34.1484 116.419 0.570312 74.9987 0.570312C33.578 0.570312 0 34.1484 0 75.569C0 116.99 33.578 150.568 74.9987 150.568Z" fill="#020066"/>
<path d="M150.003 75.5707C150.003 66.3662 148.341 57.5514 145.308 49.4039L122.522 26.5896C107.194 11.2618 82.3433 11.2618 67.0155 26.5896C53.106 40.4992 51.8198 62.2515 63.1557 77.6121L56.1813 84.5865L56.0014 84.4066C54.2017 82.6069 51.257 82.6069 49.4576 84.4066L22.8107 111.054C21.011 112.853 21.011 115.798 22.8107 117.597L31.5148 126.301L52.2739 147.061C59.4438 149.338 67.0794 150.571 75.0036 150.571C116.425 150.571 150.003 116.992 150.003 75.5707Z" fill="#020066"/>
<path d="M54.4376 86.3282L62.7812 94.6719L72.5057 84.9475L64.162 76.6038L54.4376 86.3282Z" fill="#E1E1E3"/>
<path d="M58.6171 90.4999L62.7891 94.6719L72.5135 84.9475L68.3415 80.7755L58.6171 90.4999Z" fill="#AEADB3"/>
<path d="M94.766 93.5946C116.443 93.5946 134.016 76.0216 134.016 54.3442C134.016 32.6668 116.443 15.0938 94.766 15.0938C73.0886 15.0938 55.5156 32.6668 55.5156 54.3442C55.5156 76.0216 73.0886 93.5946 94.766 93.5946Z" fill="white"/>
<path d="M122.515 26.5868L122.514 26.5859L67.0078 82.0923C67.0078 82.0923 67.0084 82.0929 67.0087 82.0934C82.3365 97.4212 107.188 97.421 122.515 82.0934C137.843 66.7659 137.843 41.9146 122.515 26.5868Z" fill="#E1E1E3"/>
<path d="M94.765 85.0222C111.709 85.0222 125.444 71.2867 125.444 54.3431C125.444 37.3995 111.709 23.6641 94.765 23.6641C77.8214 23.6641 64.0859 37.3995 64.0859 54.3431C64.0859 71.2867 77.8214 85.0222 94.765 85.0222Z" fill="#002C6A"/>
<path d="M116.459 32.6493L116.458 32.6484L73.0703 76.0364L73.0712 76.0373C85.0524 88.0186 104.478 88.0186 116.459 76.0373C128.441 64.0561 128.44 44.6308 116.459 32.6493Z" fill="#002C6A"/>
<path d="M83.3569 50.9873C87.804 50.9873 91.4091 47.3822 91.4091 42.935C91.4091 38.4879 87.804 34.8828 83.3569 34.8828C78.9098 34.8828 75.3047 38.4879 75.3047 42.935C75.3047 47.3822 78.9098 50.9873 83.3569 50.9873Z" fill="white"/>
<path d="M31.5148 126.299L22.8107 117.595C21.011 115.795 21.011 112.851 22.8107 111.051L49.4576 84.4045C51.2573 82.6048 54.202 82.6048 56.0014 84.4045L64.7055 93.1083C66.5052 94.908 66.5052 97.8526 64.7055 99.652L38.0585 126.299C36.2591 128.098 33.3145 128.098 31.5148 126.299Z" fill="#003D8D"/>
<path d="M64.6989 93.1098L60.3469 88.7578L27.1562 121.949L31.5083 126.301C33.308 128.101 36.2526 128.101 38.052 126.301L64.6989 99.6539C66.4986 97.8542 66.4986 94.9093 64.6989 93.1098Z" fill="#002C6A"/>
</g>
<defs>
<clipPath id="clip0_5832_54623">
<rect width="150" height="150" fill="white" transform="translate(0 0.570312)"/>
</clipPath>
</defs>
</svg>
