<svg width="49" height="49" viewBox="0 0 49 49" fill="none" xmlns="http://www.w3.org/2000/svg">
<g clip-path="url(#clip0_3470_23218)">
<path d="M47.753 1.0173C48.3423 1.44587 48.5833 2.0173 48.4762 2.73158L41.619 43.8744C41.5298 44.3923 41.244 44.7941 40.7619 45.0798C40.5119 45.2227 40.2351 45.2941 39.9315 45.2941C39.7351 45.2941 39.5208 45.2494 39.2887 45.1602L27.1548 40.2048L20.6726 48.1066C20.3512 48.5173 19.9137 48.7227 19.3601 48.7227C19.128 48.7227 18.9315 48.6869 18.7708 48.6155C18.4315 48.4905 18.1592 48.2807 17.9539 47.986C17.7485 47.6914 17.6458 47.3655 17.6458 47.0084V37.6602L40.7887 9.29408L12.1548 34.0709L1.5744 29.7316C0.91369 29.4816 0.556548 28.9905 0.502976 28.2584C0.467262 27.5441 0.752976 27.0173 1.36012 26.678L45.9315 0.963728C46.1994 0.803013 46.4851 0.722656 46.7887 0.722656C47.1458 0.722656 47.4673 0.820871 47.753 1.0173Z" fill="#1D67B4"/>
</g>
<defs>
<clipPath id="clip0_3470_23218">
<rect width="48" height="48" fill="white" transform="translate(0.5 0.722656)"/>
</clipPath>
</defs>
</svg>
