<svg width="24" height="24" viewBox="0 0 24 24" fill="none" xmlns="http://www.w3.org/2000/svg">
<path d="M22.6085 9.37501H20.8585C20.8567 7.75113 20.2108 6.19428 19.0625 5.04602C17.9143 3.89777 16.3574 3.25186 14.7335 3.25001V1.50001C16.8214 1.50232 18.8231 2.33275 20.2994 3.8091C21.7758 5.28545 22.6062 7.28714 22.6085 9.37501ZM15.8999 16.7968L17.8599 14.8368C18.1223 14.5743 18.4559 14.3947 18.8193 14.32C19.1828 14.2454 19.5602 14.279 19.9048 14.4168L22.2918 15.3723C22.6436 15.513 22.9452 15.756 23.1576 16.0698C23.37 16.3836 23.4835 16.7538 23.4835 17.1328V21.4736C23.4842 21.7316 23.4321 21.9871 23.3306 22.2242C23.2291 22.4614 23.0802 22.6754 22.8931 22.8531C22.706 23.0307 22.4847 23.1684 22.2425 23.2575C22.0004 23.3466 21.7427 23.3854 21.485 23.3715C4.75329 22.3303 1.37404 8.15876 0.746662 2.73201C0.716276 2.4667 0.742403 2.19797 0.823324 1.94349C0.904245 1.68901 1.03813 1.45454 1.21616 1.25551C1.3942 1.05648 1.61235 0.8974 1.85628 0.788729C2.10021 0.680058 2.36437 0.624261 2.63141 0.625007H6.89529C7.27422 0.624995 7.64447 0.738522 7.95827 0.950944C8.27207 1.16337 8.51502 1.46494 8.65579 1.81676L9.61041 4.20376C9.74818 4.54831 9.78181 4.92571 9.70716 5.2892C9.6325 5.65268 9.45283 5.98627 9.19041 6.24863L7.23041 8.20863C7.23041 8.20863 8.31716 15.8491 15.8999 16.7968Z" fill="#1D67B4"/>
</svg>
