<svg width="48" height="49" viewBox="0 0 48 49" fill="none" xmlns="http://www.w3.org/2000/svg">
<g clip-path="url(#clip0_3470_23210)">
<path d="M23.9984 26.3242C23.5741 26.3242 23.1671 26.4928 22.8671 26.7928C22.567 27.0929 22.3984 27.4999 22.3984 27.9242C22.3984 28.3486 22.567 28.7555 22.8671 29.0556C23.1671 29.3556 23.5741 29.5242 23.9984 29.5242C24.4228 29.5242 24.8297 29.3556 25.1298 29.0556C25.4299 28.7555 25.5984 28.3486 25.5984 27.9242C25.5984 27.4999 25.4299 27.0929 25.1298 26.7928C24.8297 26.4928 24.4228 26.3242 23.9984 26.3242Z" fill="#1D67B4"/>
<path fill-rule="evenodd" clip-rule="evenodd" d="M38.4 20.5339L25.6 14.1339V10.3227H35.2V0.722656H22.4V14.1339L9.6 20.5339V26.3227H3.2V45.5227H0V48.7227H19.2V35.9227H28.8V48.7227H48V45.5227H44.8V26.3227H38.4V20.5339ZM41.6 45.5227V29.5227H38.4V45.5227H41.6ZM9.6 45.5227H6.4V29.5227H9.6V45.5227ZM19.2 27.9227C19.2 26.6496 19.7057 25.4287 20.6059 24.5285C21.5061 23.6284 22.727 23.1227 24 23.1227C25.273 23.1227 26.4939 23.6284 27.3941 24.5285C28.2943 25.4287 28.8 26.6496 28.8 27.9227C28.8 29.1957 28.2943 30.4166 27.3941 31.3168C26.4939 32.2169 25.273 32.7227 24 32.7227C22.727 32.7227 21.5061 32.2169 20.6059 31.3168C19.7057 30.4166 19.2 29.1957 19.2 27.9227Z" fill="#1D67B4"/>
<path d="M25.5984 48.7211V39.1211H22.3984V48.7211H25.5984Z" fill="#1D67B4"/>
</g>
<defs>
<clipPath id="clip0_3470_23210">
<rect width="48" height="48" fill="white" transform="translate(0 0.722656)"/>
</clipPath>
</defs>
</svg>
