<svg width="43" height="40" viewBox="0 0 43 40" fill="none" xmlns="http://www.w3.org/2000/svg">
<circle cx="20.1797" cy="20" r="20" fill="#1D67B4"/>
<path d="M25.9624 7.20391C26.4171 7.39216 26.5811 7.7304 26.5795 8.2194C26.5681 11.8127 26.5681 15.4044 26.5795 18.9945C26.5795 19.2687 26.51 19.3343 26.2397 19.3335C25.5265 19.3335 24.9352 19.6273 24.4821 20.1764C24.372 20.31 24.272 20.3748 24.0978 20.3326C23.8769 20.2827 23.6466 20.2938 23.4315 20.3647C23.1315 20.4639 23.1073 20.3529 23.101 20.092C23.0854 19.4945 22.4691 19.1476 21.934 19.4156C21.7937 19.4804 21.6768 19.5869 21.5991 19.7205C21.5214 19.8541 21.4866 20.0083 21.4996 20.1623C21.5168 20.6029 21.3871 21.0622 21.6559 21.477C21.7152 21.5692 21.6035 21.6176 21.552 21.67C21.2567 21.971 20.9585 22.2696 20.6575 22.5659C20.0912 23.1229 19.8248 23.7884 19.9209 24.5852C19.9309 24.6368 19.9254 24.6903 19.9051 24.7388C19.8849 24.7873 19.8506 24.8287 19.8069 24.8578C19.1733 25.3632 18.8882 26.0295 18.9007 26.8349C18.9124 27.616 18.9007 28.3972 18.9085 29.1783C18.9148 29.5986 18.9265 29.5978 18.5062 29.5978H11.4492C11.107 29.5978 11.1062 29.5978 11.1062 29.2447C11.1062 22.2405 11.1047 15.2362 11.1016 8.23189C11.1016 7.7343 11.2578 7.37966 11.7398 7.19922L25.9624 7.20391ZM18.0406 20.567C18.0406 20.7099 18.0367 20.8537 18.0406 20.9966C18.057 21.4606 18.3656 21.7817 18.8124 21.8012C19.0163 21.8146 19.2173 21.7477 19.3724 21.6146C19.5275 21.4816 19.6243 21.2931 19.642 21.0896C19.6729 20.7416 19.6729 20.3916 19.642 20.0436C19.6255 19.8393 19.5286 19.6498 19.3727 19.5168C19.2168 19.3837 19.0145 19.3178 18.8101 19.3335C18.3695 19.3515 18.0563 19.678 18.0414 20.1389C18.0367 20.2803 18.0406 20.4232 18.0406 20.567ZM23.112 11.9447C23.112 11.783 23.1174 11.6221 23.112 11.4612C23.0924 11.005 22.769 10.68 22.3253 10.6722C22.1207 10.6628 21.9205 10.7341 21.7679 10.8709C21.6154 11.0077 21.5227 11.1989 21.5098 11.4033C21.4823 11.7413 21.4823 12.0809 21.5098 12.4188C21.5488 12.875 21.9004 13.1539 22.3589 13.1336C22.7878 13.1141 23.0948 12.7946 23.112 12.3446C23.1166 12.2134 23.112 12.079 23.112 11.9447ZM19.6584 11.9017C19.6436 11.6885 19.6803 11.4729 19.6194 11.2612C19.5721 11.082 19.4634 10.9251 19.3121 10.818C19.1609 10.7109 18.9768 10.6604 18.7921 10.6753C18.3867 10.7066 18.0719 10.9925 18.0492 11.3901C18.0281 11.7389 18.0281 12.0887 18.0492 12.4376C18.063 12.6188 18.1416 12.789 18.2708 12.9169C18.3999 13.0447 18.5709 13.1217 18.7523 13.1336C19.1733 13.1711 19.5022 12.9531 19.6178 12.5696C19.6819 12.3493 19.6436 12.1243 19.6584 11.9017ZM19.667 16.2433H19.6506C19.66 16.0734 19.66 15.9031 19.6506 15.7332C19.6006 15.2755 19.2639 14.9935 18.807 15.0099C18.7057 15.0112 18.6057 15.0325 18.5127 15.0725C18.4196 15.1124 18.3354 15.1703 18.2647 15.2429C18.1941 15.3154 18.1384 15.4012 18.1009 15.4952C18.0634 15.5893 18.0448 15.6898 18.0461 15.791C18.0367 16.0949 18.036 16.4003 18.0461 16.7042C18.0547 16.899 18.1341 17.0839 18.2693 17.2243C18.4045 17.3647 18.5864 17.451 18.7807 17.4669C18.975 17.4828 19.1684 17.4273 19.3247 17.3107C19.481 17.1942 19.5894 17.0246 19.6295 16.8339C19.655 16.6391 19.6675 16.4429 19.667 16.2465V16.2433ZM23.112 16.2433C23.112 16.0871 23.1174 15.9387 23.112 15.7871C23.0924 15.3388 22.7815 15.024 22.3488 15.006C21.8933 14.9904 21.5449 15.2747 21.5082 15.7301C21.4836 16.0606 21.4836 16.3925 21.5082 16.723C21.5132 16.8263 21.5387 16.9276 21.5831 17.021C21.6275 17.1144 21.6901 17.198 21.7671 17.2671C21.8442 17.3361 21.9341 17.3892 22.0318 17.4231C22.1295 17.4571 22.233 17.4714 22.3363 17.465C22.7831 17.4486 23.0963 17.1307 23.1135 16.6698C23.1166 16.53 23.112 16.3871 23.112 16.2465V16.2433ZM16.1979 16.3379C16.1869 16.041 16.2088 15.8348 16.1643 15.6348C16.0776 15.2317 15.7495 14.9896 15.3175 15.0146C15.1317 15.0185 14.9541 15.0919 14.8198 15.2203C14.6854 15.3487 14.6041 15.5228 14.5918 15.7082C14.5703 16.0566 14.5703 16.4059 14.5918 16.7542C14.616 17.1737 14.9316 17.4572 15.3542 17.4721C15.5486 17.4868 15.7413 17.4266 15.8927 17.3039C16.0442 17.1812 16.143 17.0052 16.169 16.812C16.1873 16.6546 16.1969 16.4963 16.1979 16.3379ZM14.5863 20.556C14.5863 20.7349 14.5731 20.9154 14.5863 21.0927C14.6067 21.2827 14.6947 21.4591 14.8344 21.5896C14.9741 21.7201 15.156 21.7959 15.347 21.8033C15.538 21.8107 15.7253 21.7492 15.8746 21.6299C16.024 21.5106 16.1254 21.3415 16.1604 21.1536C16.2198 20.7632 16.2198 20.3661 16.1604 19.9757C16.1235 19.7886 16.0207 19.621 15.8707 19.5033C15.7208 19.3856 15.5336 19.3255 15.3431 19.334C15.1527 19.3425 14.9716 19.419 14.8327 19.5496C14.6939 19.6803 14.6064 19.8564 14.5863 20.046C14.5746 20.2131 14.5863 20.3865 14.5871 20.5545L14.5863 20.556ZM16.1979 11.897C16.1932 11.6916 16.2119 11.4854 16.1651 11.2823C16.1235 11.1016 16.0194 10.9414 15.8712 10.83C15.723 10.7187 15.5401 10.6633 15.355 10.6738C14.9582 10.6909 14.6387 10.9597 14.5981 11.3416C14.5602 11.7162 14.5602 12.0935 14.5981 12.4681C14.6175 12.6482 14.7017 12.8152 14.8351 12.9379C14.9684 13.0606 15.1418 13.1307 15.323 13.1352C15.7417 13.1594 16.0729 12.9242 16.1643 12.5391C16.2104 12.3274 16.1893 12.1118 16.1979 11.897Z" fill="white"/>
<path d="M34.3711 29.1899C34.229 29.586 33.9321 29.7563 33.5267 29.7789C33.3931 29.7867 33.2603 29.8242 33.1267 29.8266C32.9486 29.8266 32.8377 29.8789 32.7611 30.0648C32.6846 30.2507 32.7221 30.3616 32.8393 30.4952C32.9748 30.651 33.1018 30.814 33.2197 30.9834C33.4439 31.3006 33.4283 31.6662 33.1588 31.9419C32.6198 32.495 32.0729 33.0418 31.5183 33.5823C31.241 33.8526 30.8746 33.869 30.5598 33.6456C30.3908 33.5274 30.2281 33.4004 30.0724 33.2652C29.9388 33.1472 29.8232 33.1089 29.6412 33.187C29.4592 33.2652 29.4107 33.373 29.3998 33.5511C29.384 33.7657 29.3545 33.9792 29.3115 34.19C29.2412 34.5533 28.9873 34.7876 28.6241 34.7923C27.8341 34.8022 27.0441 34.8022 26.2541 34.7923C26.0902 34.7925 25.9317 34.7338 25.8077 34.6268C25.6836 34.5198 25.6022 34.3717 25.5783 34.2096C25.5299 33.9635 25.508 33.712 25.4752 33.4636C25.4424 33.2152 25.0987 33.055 24.8933 33.2074C24.7136 33.3409 24.5417 33.4862 24.3613 33.619C24.0098 33.8784 23.6489 33.862 23.3419 33.5597C22.8096 33.0389 22.2826 32.5121 21.7608 31.9794C21.4436 31.6576 21.4296 31.3076 21.7038 30.9405C21.8116 30.7967 21.9194 30.653 22.0342 30.5147C22.149 30.3765 22.2178 30.2804 22.135 30.0882C22.1098 30.0086 22.059 29.9396 21.9905 29.892C21.9219 29.8443 21.8395 29.8208 21.7561 29.825C21.5413 29.8116 21.3278 29.7828 21.1171 29.7391C20.7562 29.6695 20.5258 29.4094 20.5219 29.0462C20.5135 28.265 20.5135 27.4839 20.5219 26.7028C20.5173 26.5345 20.5748 26.3704 20.6834 26.2417C20.7921 26.1131 20.9442 26.0289 21.1109 26.0052C21.3569 25.9575 21.6085 25.938 21.8577 25.9036C21.9189 25.8909 21.9761 25.8635 22.0244 25.8237C22.0726 25.7839 22.1104 25.733 22.1346 25.6753C22.1587 25.6176 22.1685 25.5549 22.163 25.4926C22.1575 25.4303 22.1369 25.3703 22.103 25.3178C21.9631 25.1311 21.8116 24.953 21.6749 24.7639C21.4351 24.4327 21.4522 24.0797 21.7389 23.7867C22.2727 23.2415 22.8122 22.702 23.3575 22.1682C23.6497 21.8823 24.0012 21.8651 24.3347 22.1034C24.491 22.2127 24.6347 22.3307 24.7816 22.4486C24.9144 22.5556 25.0206 22.6549 25.2299 22.5642C25.4393 22.4736 25.4776 22.3455 25.4893 22.1541C25.5042 21.9483 25.5329 21.7437 25.5752 21.5417C25.6487 21.18 25.908 20.9543 26.2728 20.9512C27.054 20.9434 27.8351 20.9434 28.6163 20.9512C28.7847 20.9479 28.9484 21.0065 29.0764 21.1159C29.2044 21.2254 29.2878 21.378 29.3107 21.5448C29.3593 21.7814 29.3915 22.021 29.4068 22.2619C29.4154 22.4307 29.5029 22.4885 29.6412 22.5439C29.7794 22.5994 29.8958 22.6392 30.0318 22.515C30.1932 22.3723 30.3627 22.239 30.5395 22.1159C30.8817 21.8628 31.2379 21.8737 31.5386 22.1674C32.0797 22.6991 32.6164 23.2384 33.1486 23.7852C33.4283 24.0711 33.4439 24.4359 33.2088 24.7639C33.0986 24.9202 32.9853 25.0686 32.8611 25.21C32.7369 25.3514 32.6776 25.4787 32.7635 25.6849C32.8494 25.8911 32.9978 25.8997 33.1666 25.9122C33.265 25.9193 33.3619 25.9497 33.4603 25.9513C33.8688 25.9583 34.1829 26.1177 34.3688 26.4981L34.3711 29.1899ZM27.386 30.8397C28.9803 30.9022 30.3794 29.5992 30.4059 27.9385C30.4341 26.1302 29.1311 24.9874 27.6109 24.9264C25.8494 24.8553 24.5464 26.0599 24.4707 27.8221C24.4035 29.4008 25.7276 30.7764 27.386 30.8397Z" fill="white"/>
<path d="M9.48876 23.1761V29.2597C9.48876 29.601 9.48876 29.601 9.13568 29.601C8.65136 29.601 8.16703 29.6057 7.68271 29.601C7.10387 29.5948 6.78125 29.2698 6.78125 28.6965C6.78125 25.0079 6.78125 21.3198 6.78125 17.6323C6.78125 17.0535 7.09996 16.7355 7.68037 16.7324C8.20062 16.7324 8.72088 16.7418 9.2427 16.7269C9.44971 16.7207 9.49501 16.7894 9.49423 16.9855C9.48564 19.0485 9.48876 21.1123 9.48876 23.1761Z" fill="white"/>
<path d="M28.1876 15.4418C28.1876 14.2294 28.1876 13.0174 28.1876 11.8055C28.1876 11.5329 28.2336 11.5009 28.5078 11.5509C28.6849 11.5857 28.8468 11.6747 28.9711 11.8055C29.8095 12.644 30.6477 13.4819 31.4856 14.3193C31.5798 14.4101 31.654 14.5195 31.7036 14.6405C31.7533 14.7615 31.7772 14.8915 31.7739 15.0223C31.7739 16.7549 31.7739 18.4875 31.7739 20.2201C31.7739 20.3825 31.7504 20.4544 31.5661 20.3989C31.2899 20.3158 30.998 20.2984 30.7138 20.3482C30.662 20.3597 30.6079 20.3548 30.559 20.3341C30.5101 20.3133 30.4689 20.2778 30.4412 20.2326C29.9358 19.599 29.2695 19.3014 28.4641 19.335C28.2415 19.3444 28.1774 19.2803 28.1797 19.0538C28.1938 17.8477 28.1876 16.6448 28.1876 15.4418Z" fill="white"/>
<path d="M27.4425 29.2133C27.2626 29.2165 27.0839 29.1832 26.9172 29.1155C26.7505 29.0478 26.5992 28.9471 26.4725 28.8194C26.3458 28.6916 26.2462 28.5395 26.1799 28.3723C26.1135 28.2051 26.0817 28.0261 26.0864 27.8462C26.0955 27.4919 26.2428 27.1552 26.4968 26.908C26.7509 26.6609 27.0915 26.5228 27.4459 26.5234C27.8004 26.5241 28.1406 26.6633 28.3937 26.9113C28.6469 27.1594 28.7931 27.4966 28.8009 27.8509C28.8056 28.0308 28.7737 28.2097 28.7072 28.3769C28.6406 28.544 28.5408 28.6959 28.4138 28.8233C28.2867 28.9507 28.1351 29.051 27.9682 29.118C27.8012 29.185 27.6224 29.2174 27.4425 29.2133Z" fill="white"/>
</svg>
