<svg width="51" height="49" viewBox="0 0 51 49" fill="none" xmlns="http://www.w3.org/2000/svg">
<path d="M45.2984 36.7227C46.5715 36.7227 47.7924 36.2169 48.6926 35.3168C49.5927 34.4166 50.0984 33.1957 50.0984 31.9227V5.52266C50.0984 4.24962 49.5927 3.02872 48.6926 2.12854C47.7924 1.22837 46.5715 0.722656 45.2984 0.722656H20.0024C20.8424 2.18666 21.2984 3.84266 21.2984 5.52266H45.2984V31.9227H23.6984V36.7227M33.2984 12.7227V17.5227H18.8984V48.7227H14.0984V34.3227H9.29844V48.7227H4.49844V29.5227H0.898438V17.5227C0.898438 16.2496 1.40415 15.0287 2.30432 14.1285C3.2045 13.2284 4.4254 12.7227 5.69844 12.7227H33.2984ZM16.4984 5.52266C16.4984 6.7957 15.9927 8.01659 15.0926 8.91677C14.1924 9.81694 12.9715 10.3227 11.6984 10.3227C10.4254 10.3227 9.2045 9.81694 8.30433 8.91677C7.40415 8.01659 6.89844 6.7957 6.89844 5.52266C6.89844 4.24962 7.40415 3.02872 8.30433 2.12854C9.2045 1.22837 10.4254 0.722656 11.6984 0.722656C12.9715 0.722656 14.1924 1.22837 15.0926 2.12854C15.9927 3.02872 16.4984 4.24962 16.4984 5.52266Z" fill="#1D67B4"/>
</svg>
