<svg width="24" height="24" viewBox="0 0 24 24" fill="none" xmlns="http://www.w3.org/2000/svg">
<path d="M12.112 0.332031C18.5555 0.332031 23.7787 5.5552 23.7787 11.9987C23.7787 18.4422 18.5555 23.6654 12.112 23.6654C10.0502 23.6687 8.02476 23.1231 6.24366 22.0845L0.449996 23.6654L2.02733 17.8694C0.987937 16.0877 0.441884 14.0614 0.445329 11.9987C0.445329 5.5552 5.6685 0.332031 12.112 0.332031ZM8.136 6.51536L7.90266 6.5247C7.7516 6.5339 7.60397 6.57358 7.46866 6.64136C7.3421 6.71303 7.22657 6.80263 7.12566 6.90736C6.98566 7.0392 6.90633 7.15353 6.82116 7.26436C6.38964 7.82542 6.1573 8.51423 6.16083 9.22203C6.16316 9.7937 6.3125 10.3502 6.54583 10.8705C7.02299 11.9229 7.80816 13.037 8.84416 14.0695C9.09383 14.318 9.33883 14.5677 9.6025 14.7999C10.8898 15.9332 12.4238 16.7506 14.0825 17.1869L14.7452 17.2884C14.961 17.3 15.1768 17.2837 15.3938 17.2732C15.7336 17.2557 16.0654 17.1637 16.3657 17.0037C16.5184 16.925 16.6675 16.8394 16.8125 16.747C16.8125 16.747 16.8627 16.7144 16.9583 16.642C17.1158 16.5254 17.2127 16.4425 17.3433 16.306C17.4402 16.2057 17.5242 16.0879 17.5883 15.9537C17.6793 15.7635 17.7703 15.4007 17.8077 15.0985C17.8357 14.8675 17.8275 14.7415 17.824 14.6634C17.8193 14.5385 17.7155 14.409 17.6023 14.3542L16.9233 14.0497C16.9233 14.0497 15.9083 13.6075 15.2877 13.3252C15.2227 13.2968 15.1531 13.2806 15.0823 13.2774C15.0025 13.2692 14.9219 13.2781 14.8458 13.3037C14.7697 13.3293 14.7 13.3708 14.6413 13.4255C14.6355 13.4232 14.5573 13.4897 13.7138 14.5117C13.6654 14.5768 13.5987 14.6259 13.5223 14.6529C13.4458 14.6799 13.363 14.6836 13.2845 14.6634C13.2085 14.643 13.134 14.6173 13.0617 14.5864C12.917 14.5257 12.8668 14.5024 12.7677 14.4604C12.0981 14.1682 11.4781 13.7734 10.9302 13.2902C10.7832 13.1619 10.6467 13.0219 10.5067 12.8865C10.0477 12.447 9.64767 11.9497 9.31666 11.4072L9.24783 11.2964C9.19839 11.2219 9.15841 11.1416 9.12883 11.0572C9.0845 10.8857 9.2 10.748 9.2 10.748C9.2 10.748 9.48349 10.4377 9.61533 10.2697C9.74366 10.1064 9.85216 9.9477 9.92216 9.83453C10.0598 9.61286 10.103 9.38536 10.0307 9.2092C9.70399 8.4112 9.36566 7.6167 9.01799 6.82803C8.94916 6.6717 8.745 6.5597 8.5595 6.53753C8.4965 6.53053 8.43349 6.52353 8.37049 6.51886C8.21382 6.51108 8.05682 6.51264 7.90033 6.52353L8.136 6.51536Z" fill="#1D67B4"/>
</svg>
